HIERARCHY
ROOT root
{
	OFFSET 0.00 0.00 0.00
	CHANNELS 6 Xposition Yposition Zposition Xrotation Yrotation Zrotation
	JOINT neck
	{
		OFFSET 0 0 0
		CHANNELS 3 Xrotation Yrotation Zrotation
		End head
		{
			OFFSET 0 20.0025 0
		}
	}
	End torso
	{
		OFFSET 0 -40.005 0
	}
	JOINT lshoulder
	{
		OFFSET 17.5357 -3.68096 1.7407
		CHANNELS 3 Xrotation Yrotation Zrotation
		JOINT lelbow
		{
			OFFSET 20.0025 0 0
			CHANNELS 3 Xrotation Yrotation Zrotation
			JOINT lwrist
			{
				OFFSET 20.0025 0 0
				CHANNELS 3 Xrotation Yrotation Zrotation
				End lhand
				{
					OFFSET 10.0013 0 0
				}
			}
		}
	}
	JOINT rshoulder
	{
		OFFSET -17.5357 -3.68096 1.7407
		CHANNELS 3 Xrotation Yrotation Zrotation
		JOINT relbow
		{
			OFFSET -20.0025 0 0
			CHANNELS 3 Xrotation Yrotation Zrotation
			JOINT rwrist
			{
				OFFSET -20.0025 0 0
				CHANNELS 3 Xrotation Yrotation Zrotation
				End rhand
				{
					OFFSET -10.0013 0 0
				}
			}
		}
	}
}
MOTION
Frames: 58
Frame Time: 0.0333333
0	105.756	4.11395	-0	0	-0	-8.18349	0	0	32.8576	10.8558	-70.1208	180	-48.3413	-180	-0	0	-0	15.1003	48.9134	77.7058	-0	84.0736	0	-0	0	-0
0	105.756	4.11395	-0	0	-0	-8.18569	0	0	32.9013	10.7934	-70.1157	180	-48.3748	-180	-0	0	-0	15.1072	48.8856	77.714	-0	84.0976	0	-0	0	-0
0.054362	105.81	4.11502	-0	0	-0	-8.27568	0	0.154887	32.7899	10.7454	-70.1686	180	-48.1518	-180	-0	0	-0	15.2479	49.2577	77.3565	-0	84.0733	0	-0	0	-0
0.160118	105.971	4.10734	-0	0	-0	-8.66118	6.67011e-09	0.614428	32.5583	10.4197	-70.2107	180	-47.3401	-180	-0	0	-0	15.7105	50.2674	76.2954	-0	84.0899	0	-0	0	-0
0.346373	106.317	4.09772	-0	0	-0	-9.4217	0	1.60748	31.9332	9.79625	-70.3954	180	-45.3354	-180	-0	0	-0	16.7757	52.4439	73.9227	-0	84.0902	0	-0	0	-0
0.550309	106.922	4.061	-0	0	-0	-10.4534	-2.66804e-08	3.26187	31.0385	8.48234	-70.6365	180	-42.3537	-180	-0	0	-0	18.5693	55.5128	70.0581	-0	84.0284	0	-0	0	-0
0.642137	107.724	3.99139	-0	0	-0	-11.259	0	5.18083	29.9489	6.44971	-70.9036	180	-39.1334	-180	-0	0	-0	20.8986	58.8814	65.0591	-0	83.7817	0	-0	0	-0
0.495947	108.621	3.8991	-0	0	-0	-11.116	0	6.62029	28.8187	3.76811	-70.9472	180	-36.9634	-180	-0	0	-0	22.6643	61.5737	60.4616	-0	83.1763	0	-0	0	-0
0.186255	109.518	3.76742	-0	0	-0	-9.98839	5.33609e-08	7.25661	27.4636	0.280184	-70.6669	180	-36.7074	-180	-0	0	-0	23.0472	63.3764	57.3013	-0	82.1021	0	-0	0	-0
-0.186255	110.32	3.62262	-0	0	-0	-8.62501	5.33609e-08	7.22471	25.3454	-3.13725	-69.9393	180	-38.1079	-180	-0	0	-0	22.5843	64.9058	55.2686	-0	80.8763	0	-0	0	-0
-0.495947	110.924	3.49444	-0	0	-0	-7.84945	0	7.16418	22.1386	-6.52766	-68.8694	180	-40.2226	-180	-0	0	-0	22.2359	66.3627	53.685	-0	79.9054	0	-0	0	-0
-0.682943	111.284	3.44457	-0	0	-0	-7.75179	0	7.69568	18.2918	-9.80001	-67.7558	180	-42.2823	-180	-0	0	-0	22.735	67.6405	51.9364	-0	79.4638	0	-0	0	-0
-0.764789	111.444	3.53375	-0	0	-0	-8.02946	0	8.98646	14.4471	-13.4432	-66.7057	180	-43.9894	-180	-0	0	-0	23.9115	68.5323	50.1494	-0	79.4858	0	-0	0	-0
-0.852865	111.499	3.79372	-0	0	-0	-8.55325	5.33609e-08	10.4925	10.9035	-17.1254	-65.6765	180	-45.1759	-180	-0	0	-0	25.9442	69.4898	47.8673	-0	79.7271	0	-0	0	-0
-1.11116	111.512	4.1981	-0	0	-0	-9.66728	-1.06722e-07	11.419	7.65664	-20.4349	-64.8206	180	-45.848	-180	-0	0	-0	28.2753	70.8955	45.6421	-0	79.8703	0	-0	0	-0
-1.46129	111.512	4.51611	-0	0	-0	-11.2373	0	11.7617	3.98606	-23.5023	-64.6491	180	-47.0621	-180	-0	0	-0	31.3587	72.7392	42.6348	-0	79.8497	0	-0	0	-0
-1.76685	111.512	4.59314	-0	0	-0	-12.9419	0	12.2654	-0.307562	-26.405	-65.5527	180	-49.7765	-180	-0	0	-0	35.5819	74.5401	38.305	-0	79.9813	0	-0	0	-0
-2.00785	111.512	4.52605	-0	0	-0	-14.5851	0	13.1126	-4.24897	-29.0769	-67.083	180	-53.4358	-180	-0	0	-0	41.6501	76.1242	32.0515	-0	80.5933	0	-0	0	-0
-2.25979	111.512	4.53878	-0	0	-0	-16.1033	2.13443e-07	14.0556	-6.28684	-31.3028	-68.4305	180	-56.4826	-180	-0	0	-0	47.5345	77.1881	26.3417	-0	81.8991	0	-0	0	-0
-2.51809	111.566	4.69931	-0	0	-0	-17.3203	0	14.5994	-5.82625	-33.5835	-69.1762	180	-58.0667	-180	-0	0	-0	50.5515	77.6089	23.9858	-0	83.7069	0	-0	0	-0
-2.7179	111.726	4.89531	-0	0	-0	-17.9609	0	14.6487	-3.97337	-36.2799	-69.9004	180	-59.0781	-180	-0	0	-0	47.2657	77.0522	28.2264	-0	85.3181	0	-0	0	-0
-2.82366	112.073	5.0748	-0	0	-0	-17.9759	2.13443e-07	14.0941	-1.81457	-39.5177	-71.1088	180	-60.6528	-180	-0	0	-0	38.438	75.1497	38.0863	-0	85.7873	0	-0	0	-0
-2.86446	112.623	5.29244	-0	0	-0	-17.3769	2.13443e-07	12.9728	-0.0241904	-42.7678	-72.7074	180	-63.2174	-180	-0	0	-0	29.1992	72.2259	48.1825	-0	84.6243	0	-0	0	-0
-2.87802	113.21	5.60553	-0	0	-0	-15.8939	-1.06722e-07	11.4806	1.38878	-45.5103	-74.1076	180	-66.1852	-180	-0	0	-0	23.1566	69.6876	54.6721	-0	82.3854	0	-0	0	-0
-2.82366	113.601	6.00695	-0	0	-0	-13.4902	-1.06722e-07	10.035	3.19543	-47.8614	-74.2995	180	-68.5851	-180	-0	0	-0	20.7634	68.639	57.0771	-0	80.2458	0	-0	0	-0
-2.7179	113.655	6.40851	-0	0	-0	-10.9208	0	9.03527	5.30037	-49.6188	-73.6943	180	-70.3405	-180	-0	0	-0	21.2538	69.04	56.4297	-0	79.0046	0	-0	0	-0
-2.53164	113.371	6.72558	-0	0	-0	-8.93487	5.33609e-08	8.49342	7.52307	-51.0377	-72.6962	180	-71.6001	-180	-0	0	-0	23.0294	69.8426	54.6243	-0	78.6305	0	-0	0	-0
-2.27335	112.969	6.92978	-0	0	-0	-7.95473	-5.33609e-08	8.31888	9.36004	-51.9261	-72.061	180	-72.4595	-180	-0	0	-0	24.4448	70.4147	53.1818	-0	78.5838	0	-0	0	-0
-2.0214	112.636	7.03427	-0	0	-0	-7.78509	5.33609e-08	8.30848	10.876	-52.2049	-71.8989	180	-72.6807	-180	-0	0	-0	24.5398	70.5876	52.8456	-0	78.4357	0	-0	0	-0
-1.76685	112.382	7.07697	-0	0	-0	-7.90065	0	8.32385	12.0553	-51.4466	-72.2158	180	-72.3115	-180	-0	0	-0	23.6605	70.6082	53.0924	-0	77.9986	0	-0	0	-0
-1.42048	112.13	7.08199	-0	0	-0	-7.86754	5.33609e-08	8.27772	13.1498	-50.039	-72.5358	180	-71.3665	-180	-0	0	-0	22.5743	70.5534	53.3776	-0	77.508	0	-0	0	-0
-0.9646	111.872	7.0575	-0	0	-0	-7.73551	5.33609e-08	8.20011	13.9358	-48.6573	-72.735	180	-70.3165	-180	-0	0	-0	22.3245	70.4668	53.0382	-0	77.3526	0	-0	0	-0
-0.574409	111.672	6.97659	-0	0	-0	-7.73336	0	7.97148	14.1657	-48.3697	-72.5926	180	-69.4877	-180	-0	0	-0	22.8839	70.2395	52.4358	-0	77.7401	0	-0	0	-0
-0.42896	111.566	6.82024	-0	0	-0	-8.05766	0	7.49342	13.8228	-49.3191	-72.1233	180	-69.1951	-180	-0	0	-0	23.5785	69.5937	52.3504	-0	78.6266	0	-0	0	-0
-0.628771	111.526	6.58466	-0	0	-0	-8.42013	-5.33609e-08	6.46496	12.8428	-50.4505	-71.8772	180	-69.7293	-180	-0	0	-0	22.9514	68.5329	54.0728	-0	79.4435	0	-0	0	-0
-1.12472	111.566	6.306	-0	0	-0	-8.61883	0	4.95186	11.81	-50.6467	-72.0125	180	-70.7426	-180	-0	0	-0	20.6204	67.2374	57.5394	-0	79.6677	0	-0	0	-0
-1.7533	111.672	6.04662	-0	0	-0	-8.64769	0	3.15044	11.1969	-49.5753	-72.5349	180	-71.6102	-180	-0	0	-0	17.0753	65.6101	62.0134	-0	79.2228	0	-0	0	-0
-2.30361	111.858	5.87515	-0	0	-0	-8.67639	0	1.64525	11.0619	-47.9255	-73.1878	180	-72.03	-180	-0	0	-0	13.6896	63.7676	65.9638	-0	78.458	0	-0	0	-0
-2.64998	112.062	5.82944	-0	0	-0	-8.87729	3.33505e-09	0.654427	10.9153	-46.6605	-73.9271	180	-72.2869	-180	-0	0	-0	11.4576	62.1746	68.4643	-0	77.8022	0	-0	0	-0
-2.8101	112.208	5.90052	-0	0	-0	-9.34736	1.66753e-09	0.19456	10.5176	-46.2353	-74.7883	180	-72.6674	-180	-0	0	-0	10.6517	61.3132	69.4154	-0	77.5337	0	-0	0	-0
-2.86446	112.222	6.04668	-0	0	-0	-9.94697	2.08441e-10	0.0388364	9.9254	-46.4409	-75.7708	180	-73.2132	-180	-0	0	-0	10.988	61.3059	69.2326	-0	77.6151	0	-0	0	-0
-2.87802	112.205	6.23161	-0	0	-0	-10.6191	0	-1.6439e-06	9.68817	-46.7558	-76.58	180	-73.4906	-180	-0	0	-0	12.0966	61.921	68.3316	-0	77.9331	0	-0	0	-0
-2.87802	112.222	6.43447	-0	0	-0	-11.2792	1.59028e-15	-2.72259e-07	10.1836	-46.6771	-77.0636	180	-73.1944	-180	-0	0	-0	13.7198	62.7893	67.0196	-0	78.4007	0	-0	0	-0
-2.87802	112.208	6.63085	-0	0	-0	-11.8734	0	-2.7226e-07	11.3748	-45.982	-77.2271	180	-72.3305	-180	-0	0	-0	15.4407	63.6871	65.6786	-0	78.8704	0	-0	0	-0
-2.87802	112.076	6.79866	-0	0	-0	-12.3298	0	-2.7226e-07	12.9777	-44.6965	-77.123	180	-71.1156	-180	-0	0	-0	17.2492	64.4765	64.3123	-0	79.3745	0	-0	0	-0
-2.87802	111.858	6.9241	-0	0	-0	-12.6672	0	-2.7226e-07	14.4086	-43.0857	-77.0119	180	-69.9135	-180	-0	0	-0	18.9002	65.1565	63.0749	-0	79.8033	0	-0	0	-0
-2.87802	111.672	7.00313	-0	0	-0	-12.9209	0	-2.7226e-07	15.4228	-41.6514	-76.9146	180	-69.0212	-180	-0	0	-0	20.2357	65.7083	62.0425	-0	80.1185	0	-0	0	-0
-2.87802	111.566	7.05144	-0	0	-0	-13.1732	-3.18055e-15	-2.7226e-07	15.8863	-40.6408	-76.9463	180	-68.5492	-180	-0	0	-0	21.119	66.083	61.3451	-0	80.3042	0	-0	0	-0
-2.87802	111.526	7.08412	-0	0	-0	-13.3718	0	-2.7226e-07	15.9666	-40.1699	-77.0665	180	-68.43	-180	-0	0	-0	21.426	66.1509	61.1809	-0	80.3966	0	-0	0	-0
-2.87802	111.512	7.10688	-0	0	-0	-13.4395	0	-2.7226e-07	15.7727	-40.0956	-77.3468	180	-68.5981	-180	-0	0	-0	20.9994	65.8002	61.7493	-0	80.4117	0	-0	0	-0
-2.87802	111.512	7.12335	-0	0	-0	-13.3904	0	-2.7226e-07	15.3736	-40.4607	-77.7919	180	-68.9799	-180	-0	0	-0	19.8946	65.0098	63.0543	-0	80.3527	0	-0	0	-0
-2.87802	111.512	7.12562	-0	0	-0	-13.2702	-3.18055e-15	-2.7226e-07	14.7011	-41.1748	-78.4613	180	-69.6316	-180	-0	0	-0	18.4798	63.9932	64.659	-0	80.2348	0	-0	0	-0
-2.87802	111.512	7.11316	-0	0	-0	-13.1582	0	-2.7226e-07	13.8669	-42.0451	-79.2284	180	-70.421	-180	-0	0	-0	17.2223	63.028	66.0439	-0	80.0935	0	-0	0	-0
-2.87802	111.512	7.10211	-0	0	-0	-13.0894	3.18055e-15	-2.7226e-07	13.1407	-42.7364	-79.9428	180	-71.0901	-180	-0	0	-0	16.3821	62.0814	67.0723	-0	80.2311	0	-0	0	-0
-2.87802	111.512	7.11282	-0	0	-0	-13.1007	0	-2.7226e-07	12.9419	-43.3941	-80.1246	180	-71.2319	-180	-0	0	-0	16.2807	60.9405	67.5869	-0	81.1648	0	-0	0	-0
-2.87802	111.512	7.16056	-0	0	-0	-13.1353	0	-2.7226e-07	13.2695	-44.2407	-79.417	180	-70.7014	-180	-0	0	-0	16.9938	58.5869	67.969	-0	83.6525	0	-0	0	-0
-2.87802	111.512	7.24527	-0	0	-0	-13.0743	0	-2.7226e-07	14.1009	-45.5751	-77.4388	180	-69.3639	-180	-0	0	-0	18.6295	54.5848	68.2215	-0	88.3304	0	-0	0	-0
-2.87802	111.512	7.35233	-0	0	-0	-12.9309	0	-2.7226e-07	15.4326	-47.1531	-74.0839	180	-67.1565	-180	-0	0	-0	21.0156	48.7023	68.4339	-180	84.9445	-180	-0	0	-0
